<svg width="338" height="100" viewBox="0 0 338 100" fill="none" xmlns="http://www.w3.org/2000/svg">
<path d="M96.2485 98.9525H91.7738C91.3053 98.9525 90.8655 98.7135 90.6169 98.3119L69.0084 63.5641C68.5016 62.7513 67.7081 62.6652 67.3925 62.6652C67.077 62.6652 66.2739 62.7513 65.7767 63.5641L44.1682 98.3119C43.9196 98.7135 43.4798 98.9525 43.0113 98.9525H38.5366C37.4657 98.9525 36.8156 97.7764 37.3797 96.868L60.2407 60.1218C61.7896 57.6261 64.4668 56.144 67.4021 56.144C70.3374 56.144 73.0146 57.6261 74.5635 60.1218L97.4245 96.868C97.9887 97.7764 97.3385 98.9525 96.2676 98.9525H96.2485Z" fill="white"/>
<path d="M108.553 98.9545H104.078C103.609 98.9545 103.17 98.7155 102.921 98.3139L70.3266 45.9053C69.6764 44.863 68.6151 44.2702 67.3913 44.2702C66.1674 44.2702 65.0965 44.863 64.4559 45.9053L31.8616 98.3139C31.613 98.7155 31.1731 98.9545 30.7046 98.9545H26.23C25.1591 98.9545 24.509 97.7784 25.0731 96.87L58.9104 42.463C60.7462 39.5084 63.911 37.749 67.3913 37.749C69.1314 37.749 70.7855 38.1889 72.2484 39.0016C73.7017 39.8144 74.9542 40.9905 75.8721 42.463L109.709 96.87C110.274 97.7784 109.623 98.9545 108.553 98.9545Z" fill="white"/>
<path d="M120.849 98.9531H116.374C115.906 98.9531 115.466 98.7141 115.217 98.3125L71.6465 28.2431C70.7095 26.7419 69.1605 25.8813 67.3917 25.8813C65.6229 25.8813 64.074 26.7419 63.137 28.2431L19.5662 98.3125C19.3176 98.7141 18.8778 98.9531 18.4093 98.9531H13.9346C12.8637 98.9531 12.2135 97.777 12.7777 96.8686L57.6009 24.7913C59.6757 21.4542 63.2325 19.4271 67.1527 19.3506C71.2831 19.2645 75.1268 21.4638 77.3163 24.973L122.025 96.8591C122.589 97.7674 121.939 98.9435 120.868 98.9435L120.849 98.9531Z" fill="white"/>
<path d="M133.155 98.9527H128.681C128.212 98.9527 127.772 98.7136 127.524 98.312L72.9671 10.5819C71.7433 8.61218 69.7162 7.48388 67.3929 7.48388C65.0695 7.48388 63.0425 8.61218 61.8187 10.5819L7.26201 98.312C7.01341 98.7136 6.57357 98.9527 6.10507 98.9527H1.6304C0.559535 98.9527 -0.0906535 97.7766 0.473462 96.8682L56.2826 7.1301C58.6921 3.2671 62.8417 0.953125 67.4024 0.953125C71.9632 0.953125 76.1128 3.25754 78.5222 7.1301L134.331 96.8682C134.896 97.7766 134.245 98.9527 133.175 98.9527H133.155Z" fill="white"/>
<path d="M168.8 47.7493H156.239L154.16 53.7588H147.518L158.859 22.1749H166.224L177.566 53.7588H170.878L168.8 47.7493ZM167.083 42.6886L162.519 29.4948L157.956 42.6886H167.083ZM188.131 32.6125C188.944 31.2871 189.998 30.2478 191.294 29.4948C192.619 28.7417 194.125 28.3651 195.812 28.3651V35.0073H194.14C192.152 35.0073 190.646 35.4742 189.622 36.408C188.628 37.3418 188.131 38.9684 188.131 41.2879V53.7588H181.805V28.7266H188.131V32.6125ZM198.446 41.2427C198.446 38.6521 198.973 36.3929 200.028 34.465C201.082 32.5071 202.543 31.0009 204.411 29.9466C206.278 28.8622 208.417 28.32 210.827 28.32C213.929 28.32 216.49 29.1032 218.508 30.6696C220.556 32.2058 221.927 34.3747 222.62 37.1761H215.797C215.436 36.0917 214.818 35.2482 213.944 34.6458C213.101 34.0132 212.047 33.6969 210.782 33.6969C208.974 33.6969 207.543 34.3596 206.489 35.685C205.435 36.9803 204.908 38.8329 204.908 41.2427C204.908 43.6224 205.435 45.475 206.489 46.8004C207.543 48.0957 208.974 48.7433 210.782 48.7433C213.342 48.7433 215.014 47.5986 215.797 45.3093H222.62C221.927 48.0204 220.556 50.1742 218.508 51.7707C216.46 53.3672 213.899 54.1654 210.827 54.1654C208.417 54.1654 206.278 53.6383 204.411 52.584C202.543 51.4996 201.082 49.9934 200.028 48.0656C198.973 46.1076 198.446 43.8333 198.446 41.2427ZM241.352 28.3651C243.249 28.3651 244.936 28.7869 246.412 29.6303C247.888 30.4436 249.033 31.6636 249.846 33.2903C250.69 34.8868 251.111 36.8146 251.111 39.0739V53.7588H244.786V39.9324C244.786 37.9442 244.289 36.423 243.295 35.3687C242.3 34.2843 240.945 33.7421 239.228 33.7421C237.481 33.7421 236.095 34.2843 235.071 35.3687C234.077 36.423 233.58 37.9442 233.58 39.9324V53.7588H227.254V20.3223H233.58V31.8443C234.393 30.7599 235.478 29.9165 236.833 29.314C238.189 28.6814 239.695 28.3651 241.352 28.3651ZM176.436 98.7588H170.11L155.787 77.1155V98.7588H149.461V67.1749H155.787L170.11 88.8634V67.1749H176.436V98.7588ZM205.957 85.7005C205.957 86.6042 205.897 87.4175 205.777 88.1405H187.477C187.628 89.9478 188.26 91.3636 189.375 92.3878C190.489 93.412 191.86 93.9241 193.486 93.9241C195.836 93.9241 197.508 92.9149 198.502 90.8967H205.325C204.602 93.3065 203.216 95.2947 201.168 96.861C199.119 98.3973 196.604 99.1654 193.622 99.1654C191.212 99.1654 189.043 98.6383 187.115 97.584C185.218 96.4996 183.727 94.9784 182.642 93.0204C181.588 91.0624 181.061 88.8032 181.061 86.2427C181.061 83.6521 181.588 81.3779 182.642 79.4199C183.697 77.4619 185.173 75.9557 187.07 74.9014C188.968 73.8471 191.152 73.32 193.622 73.32C196.002 73.32 198.125 73.8321 199.993 74.8562C201.891 75.8804 203.352 77.3414 204.376 79.2391C205.43 81.1067 205.957 83.2605 205.957 85.7005ZM199.406 83.8931C199.376 82.2665 198.788 80.9712 197.643 80.0073C196.499 79.0132 195.098 78.5162 193.441 78.5162C191.875 78.5162 190.549 78.9981 189.465 79.9621C188.411 80.8959 187.763 82.2062 187.522 83.8931H199.406ZM217.94 78.9228V91.0323C217.94 91.8757 218.136 92.4932 218.527 92.8848C218.949 93.2463 219.642 93.427 220.606 93.427H223.543V98.7588H219.566C214.235 98.7588 211.569 96.1682 211.569 90.9871V78.9228H208.587V73.7266H211.569V67.5364H217.94V73.7266H223.543V78.9228H217.94ZM262.794 73.7266L255.474 98.7588H248.651L244.088 81.2724L239.524 98.7588H232.656L225.291 73.7266H231.707L236.135 92.7944L240.925 73.7266H247.612L252.311 92.7493L256.739 73.7266H262.794ZM277.332 99.1654C274.922 99.1654 272.753 98.6383 270.826 97.584C268.898 96.4996 267.377 94.9784 266.262 93.0204C265.178 91.0624 264.635 88.8032 264.635 86.2427C264.635 83.6823 265.193 81.423 266.307 79.465C267.452 77.5071 269.003 76.0009 270.961 74.9466C272.919 73.8622 275.103 73.32 277.513 73.32C279.923 73.32 282.107 73.8622 284.065 74.9466C286.023 76.0009 287.559 77.5071 288.673 79.465C289.818 81.423 290.39 83.6823 290.39 86.2427C290.39 88.8032 289.803 91.0624 288.628 93.0204C287.484 94.9784 285.917 96.4996 283.929 97.584C281.971 98.6383 279.772 99.1654 277.332 99.1654ZM277.332 93.653C278.477 93.653 279.546 93.3818 280.54 92.8396C281.564 92.2673 282.378 91.4239 282.98 90.3093C283.583 89.1948 283.884 87.8392 283.884 86.2427C283.884 83.863 283.251 82.0406 281.986 80.7754C280.751 79.4801 279.23 78.8325 277.423 78.8325C275.615 78.8325 274.094 79.4801 272.859 80.7754C271.654 82.0406 271.052 83.863 271.052 86.2427C271.052 88.6224 271.639 90.4599 272.814 91.7552C274.019 93.0204 275.525 93.653 277.332 93.653ZM301.357 77.6125C302.17 76.2871 303.224 75.2478 304.519 74.4948C305.845 73.7417 307.351 73.3651 309.038 73.3651V80.0073H307.366C305.378 80.0073 303.872 80.4742 302.848 81.408C301.854 82.3418 301.357 83.9684 301.357 86.2879V98.7588H295.031V73.7266H301.357V77.6125ZM328.119 98.7588L319.624 88.0953V98.7588H313.299V65.3223H319.624V84.345L328.029 73.7266H336.252L325.227 86.2879L336.343 98.7588H328.119Z" fill="white"/>
</svg>
